<?xml version="1.0" encoding="UTF-8"?>
<!DOCTYPE svg PUBLIC "-//W3C//DTD SVG 1.1//EN" "http://www.w3.org/Graphics/SVG/1.1/DTD/svg11.dtd">
<svg xmlns="http://www.w3.org/2000/svg" version="1.1" width="83px" height="83px" style="shape-rendering:geometricPrecision; text-rendering:geometricPrecision; image-rendering:optimizeQuality; fill-rule:evenodd; clip-rule:evenodd" xmlns:xlink="http://www.w3.org/1999/xlink">
<g><path style="opacity:1" fill="#000000" d="M 24.5,9.5 C 39.3439,5.84921 50.5105,10.5159 58,23.5C 60.1002,30.4542 59.9335,37.2876 57.5,44C 57.8333,44.3333 58.1667,44.6667 58.5,45C 57.3601,46.9734 56.0267,48.8067 54.5,50.5C 60.1518,56.6521 65.9851,62.6521 72,68.5C 72.49,69.7932 72.6567,71.1266 72.5,72.5C 71.1266,72.6567 69.7932,72.49 68.5,72C 62.6521,65.9851 56.6521,60.1518 50.5,54.5C 42.1,59.6756 33.1,60.8423 23.5,58C 10.4133,50.6201 5.91333,39.4535 10,24.5C 12.9857,17.6815 17.819,12.6815 24.5,9.5 Z M 30.5,13.5 C 44.2567,13.5506 52.2567,20.3839 54.5,34C 53.2897,45.8797 46.4564,52.713 34,54.5C 22.0484,53.0482 15.2151,46.3815 13.5,34.5C 13.9118,29.7637 15.4118,25.4303 18,21.5C 21.6715,17.9227 25.8381,15.2561 30.5,13.5 Z"/></g>
</svg>
